<svg xmlns="http://www.w3.org/2000/svg" viewBox="0 0 42.84 44.11"><defs><style>.cls-1{fill:#fff;}</style></defs><title>Ресурс 5</title><g id="Слой_2" data-name="Слой 2"><g id="Слой_1-2" data-name="Слой 1"><path class="cls-1" d="M1.47,30.08H2.52v7.2H6v.88H1.47Z" transform="translate(0 -0.48)"/><path class="cls-1" d="M14.28,34c0,2.77-1.69,4.25-3.75,4.25S6.9,36.63,6.9,34.19,8.49,30,10.65,30,14.28,31.64,14.28,34ZM8,34.17c0,1.72.94,3.27,2.58,3.27s2.59-1.52,2.59-3.36c0-1.6-.84-3.28-2.58-3.28S8,32.39,8,34.17Z" transform="translate(0 -0.48)"/><path class="cls-1" d="M22.49,37.8a7.64,7.64,0,0,1-2.47.44,4.12,4.12,0,0,1-3-1.07,4.13,4.13,0,0,1-1.13-3A4.05,4.05,0,0,1,20.24,30a4.89,4.89,0,0,1,2,.37l-.25.85a4.19,4.19,0,0,0-1.78-.35A3,3,0,0,0,17,34.12a3,3,0,0,0,3.12,3.26,3.39,3.39,0,0,0,1.39-.22V34.75H19.84v-.83h2.65Z" transform="translate(0 -0.48)"/><path class="cls-1" d="M31.71,34c0,2.77-1.69,4.25-3.75,4.25s-3.63-1.66-3.63-4.1S25.92,30,28.08,30,31.71,31.64,31.71,34Zm-6.27.13c0,1.72.94,3.27,2.58,3.27s2.58-1.52,2.58-3.36c0-1.6-.84-3.28-2.57-3.28S25.44,32.39,25.44,34.17Z" transform="translate(0 -0.48)"/><path class="cls-1" d="M25.14,42.74a2.45,2.45,0,0,1,.44,0,.8.8,0,0,1,.51.13.43.43,0,0,1,.15.33.44.44,0,0,1-.31.41h0a.48.48,0,0,1,.38.46.5.5,0,0,1-.16.38.93.93,0,0,1-.64.17l-.37,0Zm.24.76h.22c.25,0,.4-.13.4-.31s-.17-.31-.41-.31a.84.84,0,0,0-.21,0Zm0,.89h.2c.25,0,.48-.09.48-.36s-.22-.36-.48-.36h-.2Z" transform="translate(0 -0.48)"/><path class="cls-1" d="M27,42.74a2.23,2.23,0,0,1,.47,0,.76.76,0,0,1,.53.15.44.44,0,0,1,.15.35.49.49,0,0,1-.35.48h0a.46.46,0,0,1,.27.37,2.55,2.55,0,0,0,.15.51h-.25a2.88,2.88,0,0,1-.13-.44c-.05-.26-.15-.35-.37-.36H27.2v.8H27Zm.24.85h.25a.37.37,0,0,0,.42-.36c0-.24-.17-.34-.43-.35a1,1,0,0,0-.24,0Z" transform="translate(0 -0.48)"/><path class="cls-1" d="M29.1,44l-.2.58h-.25l.64-1.86h.29l.63,1.86H30l-.2-.58Zm.61-.19-.19-.53c0-.13-.06-.24-.09-.34h0l-.09.33-.18.54Z" transform="translate(0 -0.48)"/><path class="cls-1" d="M30.82,44.57V42.71h.26l.59.94a5.58,5.58,0,0,1,.34.61h0c0-.25,0-.48,0-.77v-.78h.22v1.86H32l-.59-.94c-.13-.21-.25-.42-.35-.62h0c0,.24,0,.46,0,.77v.79Z" transform="translate(0 -0.48)"/><path class="cls-1" d="M33,42.74a3.77,3.77,0,0,1,.51,0,1.08,1.08,0,0,1,.76.23.88.88,0,0,1,.26.67,1,1,0,0,1-.27.72,1.11,1.11,0,0,1-.82.27l-.44,0Zm.24,1.64a.9.9,0,0,0,.25,0,.72.72,0,0,0,.79-.79.67.67,0,0,0-.75-.72l-.29,0Z" transform="translate(0 -0.48)"/><path class="cls-1" d="M14.2,2.63v-.9L13.53.51h.31l.3.59.21.43h0l.21-.43.3-.59h.32l-.71,1.22v.9Z" transform="translate(0 -0.48)"/><path class="cls-1" d="M17.5,1.55a1,1,0,0,1-1,1.12,1,1,0,0,1-.95-1.08,1,1,0,0,1,1-1.11A1,1,0,0,1,17.5,1.55Zm-1.64,0c0,.46.24.86.67.86s.68-.4.68-.88S17,.7,16.54.7,15.86,1.12,15.86,1.58Z" transform="translate(0 -0.48)"/><path class="cls-1" d="M18.51.51V1.77c0,.47.21.67.49.67s.52-.21.52-.67V.51h.27V1.75c0,.65-.34.92-.8.92s-.76-.25-.76-.91V.51Z" transform="translate(0 -0.48)"/><path class="cls-1" d="M20.65.54a2.62,2.62,0,0,1,.52,0,.86.86,0,0,1,.61.17.51.51,0,0,1,.17.4.55.55,0,0,1-.4.54h0a.54.54,0,0,1,.31.43,4.18,4.18,0,0,0,.16.58h-.28a3.29,3.29,0,0,1-.14-.5c-.06-.3-.18-.41-.42-.42h-.26v.92h-.27Zm.27,1h.28c.29,0,.48-.16.48-.41s-.2-.39-.49-.39l-.27,0Z" transform="translate(0 -0.48)"/><path class="cls-1" d="M25.24,2.56a1.36,1.36,0,0,1-.56.1,1,1,0,0,1-1.05-1.07A1.06,1.06,0,0,1,24.74.48a1.11,1.11,0,0,1,.5.09L25.17.8a.84.84,0,0,0-.42-.09.78.78,0,0,0-.83.87.77.77,0,0,0,.81.85,1,1,0,0,0,.45-.09Z" transform="translate(0 -0.48)"/><path class="cls-1" d="M27.7,1.55a1,1,0,0,1-1,1.12,1,1,0,0,1-.95-1.08,1,1,0,0,1,1-1.11A1,1,0,0,1,27.7,1.55Zm-1.64,0c0,.46.24.86.67.86s.68-.4.68-.88S27.19.7,26.74.7,26.06,1.12,26.06,1.58Z" transform="translate(0 -0.48)"/><path class="cls-1" d="M30.22,1.7c0-.3,0-.65,0-.91h0c-.07.24-.16.51-.27.8l-.37,1h-.21l-.34-1c-.1-.3-.19-.57-.25-.82h0c0,.26,0,.61,0,.93l-.06.91h-.26L28.53.51h.34l.37,1c.08.26.16.49.21.71h0c.05-.21.13-.45.22-.71l.38-1h.35l.13,2.12h-.27Z" transform="translate(0 -0.48)"/><path class="cls-1" d="M31.34.54a3.33,3.33,0,0,1,.52,0,.91.91,0,0,1,.6.17.6.6,0,0,1,.18.45.61.61,0,0,1-.16.45.9.9,0,0,1-.65.23.75.75,0,0,1-.22,0v.85h-.27Zm.27,1,.23,0c.33,0,.53-.16.53-.45s-.2-.42-.5-.42a.79.79,0,0,0-.26,0Z" transform="translate(0 -0.48)"/><path class="cls-1" d="M33.47,2l-.22.67H33L33.68.51H34l.73,2.12h-.3L34.22,2Zm.69-.21L34,1.14c0-.14-.07-.26-.11-.39h0c0,.13-.07.26-.11.39l-.21.61Z" transform="translate(0 -0.48)"/><path class="cls-1" d="M35.42,2.63V.51h.3l.68,1.07a6.2,6.2,0,0,1,.38.69h0a8,8,0,0,1,0-.87V.51H37V2.63h-.28l-.67-1.07a7.39,7.39,0,0,1-.4-.71h0c0,.27,0,.52,0,.88v.9Z" transform="translate(0 -0.48)"/><path class="cls-1" d="M38.32,2.63v-.9L37.65.51H38l.3.59.21.43h0l.21-.43L39,.51h.31L38.6,1.73v.9Z" transform="translate(0 -0.48)"/><path class="cls-1" d="M21.82,43.88H.21A.21.21,0,0,1,0,43.67V39.83a.21.21,0,0,1,.21-.21.21.21,0,0,1,.21.21v3.62h21.4a.21.21,0,0,1,.21.22A.21.21,0,0,1,21.82,43.88Z" transform="translate(0 -0.48)"/><path class="cls-1" d="M42.63,43.88H37.71a.21.21,0,0,1-.21-.21.21.21,0,0,1,.21-.22h4.7v-42H40A.21.21,0,1,1,40,1h2.68a.21.21,0,0,1,.21.21V43.67A.22.22,0,0,1,42.63,43.88Z" transform="translate(0 -0.48)"/><path class="cls-1" d="M.21,27.29A.21.21,0,0,1,0,27.08V1.25A.21.21,0,0,1,.21,1H12.76a.21.21,0,1,1,0,.42H.42V27.08A.21.21,0,0,1,.21,27.29Z" transform="translate(0 -0.48)"/><path class="cls-1" d="M1.56,24.43a.22.22,0,0,1-.21-.21V2.6a.22.22,0,0,1,.21-.21H6.48a.22.22,0,1,1,0,.43H1.78v21.4A.22.22,0,0,1,1.56,24.43Z" transform="translate(0 -0.48)"/><path class="cls-1" d="M41.27,42.52H39.64a.21.21,0,0,1-.22-.21.22.22,0,0,1,.22-.21h1.42V20.7a.21.21,0,0,1,.21-.21.21.21,0,0,1,.21.21V42.31A.21.21,0,0,1,41.27,42.52Z" transform="translate(0 -0.48)"/></g></g></svg>