<svg xmlns="http://www.w3.org/2000/svg" viewBox="0 0 180.19 69.07"><defs><style>.cls-1{fill:#fff;}</style></defs><title>Ресурс 4</title><g id="Слой_2" data-name="Слой 2"><g id="Слой_1-2" data-name="Слой 1"><path class="cls-1" d="M99,52.29h2.13V67h7V68.8H99Z"/><path class="cls-1" d="M125.13,60.37c0,5.68-3.45,8.7-7.67,8.7S110,65.69,110,60.69c0-5.24,3.26-8.67,7.67-8.67S125.13,55.47,125.13,60.37Zm-12.81.27c0,3.53,1.91,6.69,5.27,6.69s5.29-3.11,5.29-6.86c0-3.28-1.72-6.71-5.27-6.71S112.32,57,112.32,60.64Z"/><path class="cls-1" d="M141.93,68.06a15.2,15.2,0,0,1-5.07.91,7.76,7.76,0,0,1-8.48-8.33c0-4.92,3.41-8.52,8.94-8.52a10.29,10.29,0,0,1,4.12.76l-.52,1.74a8.57,8.57,0,0,0-3.65-.71c-4,0-6.63,2.49-6.63,6.63s2.52,6.67,6.37,6.67a6.84,6.84,0,0,0,2.84-.45V61.84h-3.36V60.13h5.44Z"/><path class="cls-1" d="M160.76,60.37c0,5.68-3.45,8.7-7.67,8.7s-7.42-3.38-7.42-8.38c0-5.24,3.26-8.67,7.67-8.67S160.76,55.47,160.76,60.37ZM148,60.64c0,3.53,1.91,6.69,5.27,6.69s5.29-3.11,5.29-6.86c0-3.28-1.72-6.71-5.27-6.71S148,57,148,60.64Z"/><path class="cls-1" d="M59,34V31.67l-1.7-3.11h.79l.76,1.49c.21.41.37.74.54,1.11h0c.16-.35.34-.7.55-1.11l.78-1.49h.79l-1.81,3.1V34Z"/><path class="cls-1" d="M67.43,31.2a2.53,2.53,0,0,1-2.51,2.85,2.48,2.48,0,0,1-2.42-2.74A2.56,2.56,0,0,1,65,28.47,2.46,2.46,0,0,1,67.43,31.2Zm-4.19.09c0,1.16.63,2.19,1.72,2.19s1.73-1,1.73-2.24S66.13,29,65,29,63.24,30.11,63.24,31.29Z"/><path class="cls-1" d="M70,28.56v3.2c0,1.21.54,1.72,1.26,1.72s1.31-.53,1.31-1.72v-3.2h.71v3.15c0,1.66-.88,2.34-2,2.34s-1.94-.64-1.94-2.31V28.56Z"/><path class="cls-1" d="M75.44,28.63a7.36,7.36,0,0,1,1.33-.11,2.25,2.25,0,0,1,1.57.44,1.35,1.35,0,0,1,.42,1,1.41,1.41,0,0,1-1,1.37v0a1.34,1.34,0,0,1,.8,1.09A8.5,8.5,0,0,0,79,34h-.72a6.7,6.7,0,0,1-.36-1.29c-.16-.75-.45-1-1.08-1.05h-.66V34h-.69Zm.69,2.46h.72c.74,0,1.21-.41,1.21-1s-.5-1-1.24-1a3.17,3.17,0,0,0-.69.06Z"/><path class="cls-1" d="M87.14,33.78a3.44,3.44,0,0,1-1.43.26A2.52,2.52,0,0,1,83,31.31a2.69,2.69,0,0,1,2.82-2.84,3,3,0,0,1,1.29.24l-.17.57a2.53,2.53,0,0,0-1.09-.22,2,2,0,0,0-2.11,2.22,2,2,0,0,0,2.08,2.17A2.71,2.71,0,0,0,87,33.23Z"/><path class="cls-1" d="M93.42,31.2a2.53,2.53,0,0,1-2.51,2.85,2.48,2.48,0,0,1-2.43-2.74A2.57,2.57,0,0,1,91,28.47,2.46,2.46,0,0,1,93.42,31.2Zm-4.19.09c0,1.16.62,2.19,1.72,2.19s1.73-1,1.73-2.24S92.12,29,91,29,89.23,30.11,89.23,31.29Z"/><path class="cls-1" d="M99.83,31.59c0-.75-.09-1.66-.08-2.33h0c-.19.63-.41,1.3-.68,2l-1,2.62h-.53l-.87-2.57c-.26-.77-.47-1.46-.62-2.1h0c0,.67-.06,1.58-.1,2.38L95.8,34h-.66l.37-5.4h.89l.92,2.61c.23.67.41,1.26.55,1.82h0c.14-.54.33-1.14.57-1.82l1-2.61h.89l.34,5.4H100Z"/><path class="cls-1" d="M102.68,28.62a9,9,0,0,1,1.34-.1,2.2,2.2,0,0,1,1.51.45A1.43,1.43,0,0,1,106,30.1a1.58,1.58,0,0,1-.41,1.15,2.25,2.25,0,0,1-1.65.59,2.42,2.42,0,0,1-.56,0V34h-.7Zm.7,2.61a2.32,2.32,0,0,0,.57.05c.84,0,1.36-.4,1.36-1.15s-.51-1.06-1.28-1.06a2.94,2.94,0,0,0-.65.06Z"/><path class="cls-1" d="M108.1,32.26l-.56,1.7h-.72l1.83-5.4h.85l1.84,5.4h-.75l-.57-1.7Zm1.77-.54-.53-1.56c-.12-.35-.2-.67-.28-1h0c-.08.32-.17.65-.28,1l-.52,1.57Z"/><path class="cls-1" d="M113.09,34v-5.4h.76l1.73,2.73a15.14,15.14,0,0,1,1,1.76h0a22.13,22.13,0,0,1-.08-2.22V28.56h.65V34h-.7l-1.71-2.74a16.49,16.49,0,0,1-1-1.8h0c0,.69.06,1.34.06,2.23V34Z"/><path class="cls-1" d="M120.47,34V31.67l-1.71-3.11h.79l.76,1.49c.21.41.37.74.54,1.11h0c.15-.35.33-.7.54-1.11l.78-1.49H123l-1.81,3.1V34Z"/><path class="cls-1" d="M91.79,60.71H.5a.5.5,0,0,1-.5-.5V.5A.5.5,0,0,1,.5,0H12.86a.5.5,0,0,1,.5.5.5.5,0,0,1-.5.5H1V59.71H91.79a.5.5,0,0,1,0,1Z"/><path class="cls-1" d="M179.69,60.71h-12a.5.5,0,0,1,0-1h11.48V1h-78a.5.5,0,0,1-.5-.5.5.5,0,0,1,.5-.5h78.52a.5.5,0,0,1,.5.5V60.21A.5.5,0,0,1,179.69,60.71Z"/><path class="cls-1" d="M175.64,26.13a.5.5,0,0,1-.5-.5V5.17H121.51a.51.51,0,0,1-.5-.5.5.5,0,0,1,.5-.5h54.13a.5.5,0,0,1,.5.5v21A.5.5,0,0,1,175.64,26.13Z"/><path class="cls-1" d="M58.68,56.55H4.55a.5.5,0,0,1-.5-.5v-21a.5.5,0,0,1,.5-.5.5.5,0,0,1,.5.5V55.55H58.68a.5.5,0,0,1,.5.5A.51.51,0,0,1,58.68,56.55Z"/></g></g></svg>