<svg xmlns="http://www.w3.org/2000/svg" viewBox="0 0 117.81 69.72"><defs><style>.cls-1{fill:#fff;}.cls-2{fill-rule:evenodd;}</style></defs><title>Ресурс 1</title><g id="Слой_2" data-name="Слой 2"><g id="PRINT"><g id="CUSTOM-Group"><circle class="cls-1" cx="34.4" cy="56.49" r="7.07"/><circle class="cls-1" cx="95.37" cy="56.49" r="7.07"/><path class="cls-2" d="M84,.69C94.2,3.06,98.11,9,103,17.26H84ZM24.29,18c2,0,3.45,1,3.45,3.22a3.45,3.45,0,0,1-3.44,3.45H3.45a3.45,3.45,0,0,0,0,6.9H34.51a3.46,3.46,0,1,1,0,6.91H3.45a3.45,3.45,0,0,0,0,6.9H11V55.68a3.45,3.45,0,0,0,3.46,3.45h6.93a13.23,13.23,0,0,0,25.93,0H82.41a13.23,13.23,0,0,0,25.93,0h6a3.45,3.45,0,0,0,3.45-3.45V35c0-10.12-10.68-10.79-10.69-10.81H80.53a3.46,3.46,0,0,1-3.45-3.45V0H14.5A3.46,3.46,0,0,0,11,3.45V11H6.9A3.46,3.46,0,0,0,6.9,18ZM99.85,52a6.33,6.33,0,1,1-10.8,4.48A6.33,6.33,0,0,1,99.85,52Zm-61,0a6.33,6.33,0,1,1-10.8,4.48A6.33,6.33,0,0,1,38.87,52Z"/></g></g></g></svg>