<svg xmlns="http://www.w3.org/2000/svg" viewBox="0 0 348.01 69.72"><defs><style>.cls-1{fill:#fff;}.cls-2{fill-rule:evenodd;}</style></defs><title>Ресурс 2</title><g id="Слой_2" data-name="Слой 2"><g id="PRINT"><g id="CUSTOM-Group"><circle class="cls-1" cx="264.6" cy="56.49" r="7.07"/><circle class="cls-1" cx="325.57" cy="56.49" r="7.07"/><path class="cls-2" d="M314.61.69c10.22,2.37,14.13,8.35,19,16.57h-19ZM254.92,18c2,0,3.45,1,3.45,3.22a3.45,3.45,0,0,1-3.44,3.45H234.08a3.45,3.45,0,0,0,0,6.9h31.06a3.46,3.46,0,1,1,0,6.91H234.08a3.45,3.45,0,0,0,0,6.9h7.59V55.68a3.45,3.45,0,0,0,3.46,3.45h6.93a13.23,13.23,0,0,0,25.93,0H313a13.23,13.23,0,0,0,25.93,0h6a3.45,3.45,0,0,0,3.45-3.45V35c0-10.12-10.68-10.79-10.69-10.81H311.16a3.46,3.46,0,0,1-3.45-3.45V0H245.13a3.46,3.46,0,0,0-3.46,3.45V11h-4.14a3.46,3.46,0,0,0,0,6.91ZM330.48,52a6.33,6.33,0,1,1-10.8,4.48A6.33,6.33,0,0,1,330.48,52Zm-61,0a6.33,6.33,0,1,1-10.8,4.48A6.33,6.33,0,0,1,269.5,52Z" transform="translate(-0.43)"/></g><path class="cls-1" d="M17.93,4.4c.95.65,1.42,1.29,1.42,1.9a3,3,0,0,1-.67,1.53l-6.22,9.31v5.51a7.77,7.77,0,0,1-.05,1,2.38,2.38,0,0,1-.27.77,1.27,1.27,0,0,1-.78.6,4.9,4.9,0,0,1-1.47.18A4.81,4.81,0,0,1,8.42,25a1.21,1.21,0,0,1-.78-.62,2.46,2.46,0,0,1-.27-.77,8.39,8.39,0,0,1,0-1V17.14L1.1,7.83A3,3,0,0,1,.43,6.3c0-.61.42-1.2,1.27-1.77a4.09,4.09,0,0,1,1.82-.85,1.46,1.46,0,0,1,.86.23,3.68,3.68,0,0,1,1,1.18l4.47,7.15,4.47-7.15a3.83,3.83,0,0,1,1-1.14,1.65,1.65,0,0,1,.94-.27A3.87,3.87,0,0,1,17.93,4.4Z" transform="translate(-0.43)"/><path class="cls-1" d="M30.85,3.74a10.23,10.23,0,0,1,7.41,3.08,10.32,10.32,0,0,1,3.14,7.66,11,11,0,0,1-3,7.78A9.71,9.71,0,0,1,31,25.47a10,10,0,0,1-7.45-3.17,10.46,10.46,0,0,1-3.07-7.55,11.68,11.68,0,0,1,.86-4.48,10.42,10.42,0,0,1,2.31-3.51A10.86,10.86,0,0,1,27,4.54,9.78,9.78,0,0,1,30.85,3.74ZM25.6,14.61a5.51,5.51,0,0,0,1.66,4.16,5.12,5.12,0,0,0,7.4,0,5.49,5.49,0,0,0,1.64-4.18,5.56,5.56,0,0,0-1.66-4.21,5.25,5.25,0,0,0-3.7-1.58,5.13,5.13,0,0,0-3.69,1.6A5.54,5.54,0,0,0,25.6,14.61Z" transform="translate(-0.43)"/><path class="cls-1" d="M57.09,4.77a1.47,1.47,0,0,1,.83-.63A4.49,4.49,0,0,1,59.29,4a4.62,4.62,0,0,1,1.31.14,2.19,2.19,0,0,1,.75.35,1.08,1.08,0,0,1,.38.6,5,5,0,0,1,.17,1.5v8.71a11.21,11.21,0,0,1-2.36,6.92,8.66,8.66,0,0,1-3,2.38,8.92,8.92,0,0,1-4,.9,8.58,8.58,0,0,1-4-.92,8.3,8.3,0,0,1-2.93-2.42,11.08,11.08,0,0,1-2.33-6.92V6.53a8.56,8.56,0,0,1,0-1,2.46,2.46,0,0,1,.27-.77,1.3,1.3,0,0,1,.78-.6A4.94,4.94,0,0,1,45.84,4a4.85,4.85,0,0,1,1.47.17,1.14,1.14,0,0,1,.75.6,4,4,0,0,1,.35,1.82v8.65a7,7,0,0,0,.86,3.35,3.23,3.23,0,0,0,1.3,1.29,4.07,4.07,0,0,0,2,.49,3.53,3.53,0,0,0,3.14-1.55,6.37,6.37,0,0,0,1-3.61V6.36A3.11,3.11,0,0,1,57.09,4.77Z" transform="translate(-0.43)"/><path class="cls-1" d="M80.38,21.55a4.61,4.61,0,0,1,.43,1.5c0,.73-.59,1.35-1.78,1.85a4,4,0,0,1-1.49.4,1.5,1.5,0,0,1-.92-.27,2,2,0,0,1-.53-.56q-.3-.55-2.25-5.22l-.9.05H69.31v3.26a8.28,8.28,0,0,1,0,1,2.23,2.23,0,0,1-.28.76q-.4.78-2.25.78c-1.34,0-2.13-.36-2.36-1.07a5,5,0,0,1-.17-1.5v-16a8.2,8.2,0,0,1,0-1,2.46,2.46,0,0,1,.27-.77Q64.93,4,66.77,4H73a8,8,0,0,1,4.93,1.85,6.77,6.77,0,0,1,1.9,2.42,7.61,7.61,0,0,1,.75,3.4A7.18,7.18,0,0,1,78.42,17C78.84,18.05,79.5,19.55,80.38,21.55ZM69.31,14.2H73a2.74,2.74,0,0,0,1.67-.63,2.25,2.25,0,0,0,.84-1.91,2.26,2.26,0,0,0-.84-1.91,2.73,2.73,0,0,0-1.73-.65H69.31Z" transform="translate(-0.43)"/><path class="cls-1" d="M102.9,19.59l.52-.37a3.34,3.34,0,0,1,1.38-.58c.6,0,1.24.54,1.93,1.62a3.29,3.29,0,0,1,.64,1.61,1.4,1.4,0,0,1-.39,1,4.38,4.38,0,0,1-.91.72l-1,.61a11,11,0,0,1-2,.75,9.73,9.73,0,0,1-2.84.46,11.09,11.09,0,0,1-2.77-.36A12.36,12.36,0,0,1,92,21.77,9.37,9.37,0,0,1,90,18.63a11.17,11.17,0,0,1-.77-4.17A10.67,10.67,0,0,1,90,10.38a9.37,9.37,0,0,1,1.92-3,11.24,11.24,0,0,1,2.67-2,11.62,11.62,0,0,1,5.68-1.56,9.52,9.52,0,0,1,2.75.42,9.69,9.69,0,0,1,2.12.85l.69.41q.52.32.81.51a1.77,1.77,0,0,1,.75,1.37,2.7,2.7,0,0,1-.61,1.6c-.75,1-1.42,1.56-2,1.56a3.1,3.1,0,0,1-1.47-.63,4.92,4.92,0,0,0-3.23-1,6.32,6.32,0,0,0-3.69,1.29A5,5,0,0,0,94.94,12a5.82,5.82,0,0,0-.57,2.61,5.82,5.82,0,0,0,.57,2.61A5.17,5.17,0,0,0,96.41,19a6.22,6.22,0,0,0,3.66,1.27,5.8,5.8,0,0,0,1.69-.24A4.05,4.05,0,0,0,102.9,19.59Z" transform="translate(-0.43)"/><path class="cls-1" d="M119.19,3.74a10.23,10.23,0,0,1,7.41,3.08,10.32,10.32,0,0,1,3.14,7.66,11,11,0,0,1-3,7.78,9.71,9.71,0,0,1-7.38,3.21,10,10,0,0,1-7.45-3.17,10.46,10.46,0,0,1-3.07-7.55,11.68,11.68,0,0,1,.86-4.48A10.42,10.42,0,0,1,112,6.76a10.86,10.86,0,0,1,3.32-2.22A9.74,9.74,0,0,1,119.19,3.74Zm-5.25,10.87a5.51,5.51,0,0,0,1.66,4.16,5.11,5.11,0,0,0,7.39,0,5.46,5.46,0,0,0,1.65-4.18A5.56,5.56,0,0,0,123,10.42a5.25,5.25,0,0,0-3.7-1.58,5.17,5.17,0,0,0-3.7,1.6A5.57,5.57,0,0,0,113.94,14.61Z" transform="translate(-0.43)"/><path class="cls-1" d="M154.08,4.8a2.42,2.42,0,0,1,.27.78,8.69,8.69,0,0,1,0,1v16c0,1.33-.36,2.11-1.09,2.34a4.92,4.92,0,0,1-1.39.17,5.05,5.05,0,0,1-1.32-.14,2.39,2.39,0,0,1-.75-.35,1.27,1.27,0,0,1-.41-.58,6,6,0,0,1-.14-1.5V12.88c-.48.59-1.18,1.54-2.11,2.84s-1.5,2.11-1.75,2.43-.43.55-.52.68a2.88,2.88,0,0,1-.71.52,2.43,2.43,0,0,1-2.39,0,2.74,2.74,0,0,1-.77-.59l-.23-.32c-.38-.48-1.14-1.51-2.28-3.07s-1.74-2.41-1.84-2.52v9.71a8.39,8.39,0,0,1,0,1,2,2,0,0,1-.28.73q-.44.78-2.25.78t-2.19-.78a2.14,2.14,0,0,1-.27-.75,9.06,9.06,0,0,1,0-1v-16a8.2,8.2,0,0,1,0-1,2.46,2.46,0,0,1,.27-.77q.44-.75,2.25-.75a4.37,4.37,0,0,1,1.34.19,1.87,1.87,0,0,1,.74.39l.17.17,6.55,8.6q4.89-6.49,6.54-8.57c.33-.52,1.1-.78,2.32-.78S153.81,4.28,154.08,4.8Z" transform="translate(-0.43)"/><path class="cls-1" d="M172.3,8.26a7.61,7.61,0,0,1,.75,3.4,7.54,7.54,0,0,1-.75,3.39,6.69,6.69,0,0,1-1.94,2.41,8,8,0,0,1-5,1.84H161.8v3.26a8.28,8.28,0,0,1,0,1,2.23,2.23,0,0,1-.28.76c-.26.52-1,.78-2.24.78s-2.14-.36-2.37-1.07a5,5,0,0,1-.17-1.5v-16a8.2,8.2,0,0,1,0-1,2.27,2.27,0,0,1,.28-.77c.26-.52,1-.78,2.24-.78h6.17a8,8,0,0,1,4.93,1.85A6.64,6.64,0,0,1,172.3,8.26Zm-5.16,5.31a2.27,2.27,0,0,0,.83-1.91,2.28,2.28,0,0,0-.83-1.91,2.77,2.77,0,0,0-1.73-.65H161.8v5.1h3.63A2.83,2.83,0,0,0,167.14,13.57Z" transform="translate(-0.43)"/><path class="cls-1" d="M184.72,5.49l7.79,16.09a4,4,0,0,1,.49,1.47c0,.69-.56,1.32-1.68,1.88a3.84,3.84,0,0,1-1.54.49,1.56,1.56,0,0,1-.92-.26,1.89,1.89,0,0,1-.52-.55c-.11-.19-.25-.48-.44-.87l-1.5-3.11h-8l-1.5,3.11a8.78,8.78,0,0,1-.45.84,2,2,0,0,1-.52.53,1.42,1.42,0,0,1-.92.28,3.89,3.89,0,0,1-1.54-.49c-1.12-.54-1.67-1.16-1.67-1.85a3.77,3.77,0,0,1,.49-1.47l7.78-16.11a2.44,2.44,0,0,1,1-1.07A2.55,2.55,0,0,1,182.42,4,2.44,2.44,0,0,1,184.72,5.49Zm-2.33,6.92-1.91,3.95h3.84Z" transform="translate(-0.43)"/><path class="cls-1" d="M208.23,4.87a1.39,1.39,0,0,1,.83-.67A4.42,4.42,0,0,1,210.43,4a4.74,4.74,0,0,1,1.32.15,2,2,0,0,1,.75.34,1.12,1.12,0,0,1,.36.61A4.39,4.39,0,0,1,213,6.59v16a7.79,7.79,0,0,1,0,1,2.46,2.46,0,0,1-.27.75q-.41.78-2.25.78a5,5,0,0,1-1.56-.17,1.7,1.7,0,0,1-.72-.55q-6.48-8.65-8.53-11.3v9.48a7.79,7.79,0,0,1,0,1,2.21,2.21,0,0,1-.27.75q-.41.78-2.25.78t-2.19-.78a2.42,2.42,0,0,1-.27-.78,8.14,8.14,0,0,1,0-1V6.47a3.42,3.42,0,0,1,.28-1.6,1.34,1.34,0,0,1,.82-.67A4.6,4.6,0,0,1,197.09,4a4.94,4.94,0,0,1,1.37.16,1.92,1.92,0,0,1,.71.36,8.71,8.71,0,0,1,.66.75q6.09,8.28,8.13,10.93V6.47A3.57,3.57,0,0,1,208.23,4.87Z" transform="translate(-0.43)"/><path class="cls-1" d="M232.12,4.4c.94.65,1.41,1.29,1.41,1.9a3.1,3.1,0,0,1-.66,1.53l-6.23,9.31v5.51a8.2,8.2,0,0,1,0,1,2.38,2.38,0,0,1-.27.77,1.27,1.27,0,0,1-.78.6,4.9,4.9,0,0,1-1.47.18,4.81,4.81,0,0,1-1.47-.18,1.21,1.21,0,0,1-.78-.62,2.23,2.23,0,0,1-.27-.77,8.39,8.39,0,0,1-.05-1V17.14l-6.23-9.31a3.1,3.1,0,0,1-.66-1.53c0-.61.42-1.2,1.27-1.77a4.09,4.09,0,0,1,1.82-.85,1.46,1.46,0,0,1,.86.23,3.8,3.8,0,0,1,1,1.18l4.47,7.15,4.47-7.15A3.83,3.83,0,0,1,229.5,4a1.65,1.65,0,0,1,.94-.27A3.87,3.87,0,0,1,232.12,4.4Z" transform="translate(-0.43)"/><path d="M120.38,44.34A9,9,0,0,1,120,56.67a8.28,8.28,0,0,1-6.13,2.56h-10q-2.67,0-3.12-1.44a6.41,6.41,0,0,1-.23-2V34.73a10.42,10.42,0,0,1,.06-1.33,3.17,3.17,0,0,1,.36-1c.36-.68,1.34-1,3-1h9.58a7.82,7.82,0,0,1,5.85,2.43,8.11,8.11,0,0,1,2.47,5.93A7.84,7.84,0,0,1,120.38,44.34Zm-4.48,5.59a4.08,4.08,0,0,0-.21-1.45,1.34,1.34,0,0,0-.7-.76,6,6,0,0,0-2.13-.3,3.35,3.35,0,0,1-2-.53,2.7,2.7,0,0,1-.68-2.19,2.63,2.63,0,0,1,.7-2.18,3.92,3.92,0,0,1,2.34-.53c1,0,1.62-.27,1.82-.8a6.23,6.23,0,0,0,.11-1.37,1.44,1.44,0,0,0-.62-1.33,3.75,3.75,0,0,0-1.88-.38h-5.32v14.4h6.23C115.1,52.51,115.9,51.65,115.9,49.93Z" transform="translate(-0.43)"/><path d="M146.41,54.56a6,6,0,0,1,.57,2c0,1-.79,1.77-2.36,2.43a5.29,5.29,0,0,1-2,.53,2,2,0,0,1-1.21-.36,2.66,2.66,0,0,1-.7-.74c-.26-.48-1.25-2.78-3-6.88l-1.17.08h-4.79v4.29a10.49,10.49,0,0,1-.06,1.31,3.17,3.17,0,0,1-.36,1c-.35.68-1.34,1-3,1-1.78,0-2.81-.46-3.12-1.4a6.41,6.41,0,0,1-.23-2V34.77a10.49,10.49,0,0,1,.06-1.31,3.17,3.17,0,0,1,.36-1c.36-.68,1.34-1,3-1h8.2a10.54,10.54,0,0,1,6.5,2.43,8.94,8.94,0,0,1,2.51,3.19,10.12,10.12,0,0,1,1,4.48,9.45,9.45,0,0,1-2.85,7.07Q144.66,50.61,146.41,54.56Zm-14.59-9.69h4.86a3.58,3.58,0,0,0,2.2-.83A3,3,0,0,0,140,41.53,3,3,0,0,0,138.88,39a3.65,3.65,0,0,0-2.27-.85h-4.79Z" transform="translate(-0.43)"/><path d="M165.14,33.4l10.25,21.2a5,5,0,0,1,.65,1.94c0,.91-.74,1.73-2.21,2.47a4.92,4.92,0,0,1-2,.64,2,2,0,0,1-1.21-.34,2.32,2.32,0,0,1-.69-.72c-.14-.25-.33-.63-.59-1.14l-2-4.1H156.82l-2,4.1c-.25.51-.45.87-.59,1.1a2.76,2.76,0,0,1-.68.7,2,2,0,0,1-1.22.36,5,5,0,0,1-2-.64c-1.47-.71-2.2-1.52-2.2-2.43a4.94,4.94,0,0,1,.64-1.94L159,33.36a3.48,3.48,0,0,1,3.08-1.93A3.22,3.22,0,0,1,165.14,33.4Zm-3.08,9.12-2.51,5.2h5Z" transform="translate(-0.43)"/><path d="M196.12,32.58a1.8,1.8,0,0,1,1.08-.89,6.11,6.11,0,0,1,1.8-.23,6.79,6.79,0,0,1,1.75.19,2.86,2.86,0,0,1,1,.46,1.57,1.57,0,0,1,.47.8,5.7,5.7,0,0,1,.23,1.93V55.93c0,.61,0,1-.05,1.33a3,3,0,0,1-.37,1c-.35.68-1.34,1-3,1A6,6,0,0,1,197,59a2.18,2.18,0,0,1-.95-.72q-8.55-11.4-11.25-14.89v12.5a10.9,10.9,0,0,1-.05,1.33,3.17,3.17,0,0,1-.36,1q-.54,1-3,1t-2.88-1a2.77,2.77,0,0,1-.36-1,11,11,0,0,1-.06-1.33V34.69a4.68,4.68,0,0,1,.36-2.11,1.8,1.8,0,0,1,1.08-.89,6.36,6.36,0,0,1,1.86-.23,6.27,6.27,0,0,1,1.81.21,2.33,2.33,0,0,1,.93.48,8.69,8.69,0,0,1,.87,1q8,10.89,10.72,14.39V34.69A4.68,4.68,0,0,1,196.12,32.58Z" transform="translate(-0.43)"/><path d="M208.86,31.39l7,0a13.67,13.67,0,0,1,9.69,4,13,13,0,0,1,4.18,9.77,13.65,13.65,0,0,1-4.09,9.93,13.38,13.38,0,0,1-9.89,4.14h-7c-1.54,0-2.5-.31-2.88-.95a5,5,0,0,1-.46-2.43V34.73a10.42,10.42,0,0,1,.06-1.33,2.73,2.73,0,0,1,.36-1C206.25,31.73,207.24,31.39,208.86,31.39Zm12,19.09a6.66,6.66,0,0,0,2.2-5.11,6.87,6.87,0,0,0-2.14-5.15,7,7,0,0,0-5-2.07H212.2V52.51h3.69A7.14,7.14,0,0,0,220.83,50.48Z" transform="translate(-0.43)"/></g></g></svg>